<svg width="17" height="23" viewBox="0 0 17 23" fill="none" xmlns="http://www.w3.org/2000/svg">
<path d="M8.49788 0.961731C4.42821 0.961731 0.724731 5.98432 0.724731 11.4979C0.724731 17.0115 4.42821 22.0341 8.49788 22.0341C12.5676 22.0341 16.271 17.0115 16.271 11.4979C16.271 5.98432 12.5676 0.961731 8.49788 0.961731ZM3.25475 11.4979C3.25475 9.07611 4.19102 6.6834 5.51013 5.15208C5.38529 5.70552 5.31871 6.27561 5.31871 6.85818C5.31871 8.94711 6.13431 10.9112 7.60738 12.3884C9.53819 14.3192 9.66302 17.3777 7.98605 19.4542C5.52261 18.9923 3.25475 15.2805 3.25475 11.4979ZM11.4815 17.8521C12.0474 15.3221 11.3566 12.5674 9.39254 10.6033C7.46174 8.67247 7.3369 5.61397 9.01387 3.53752C11.4732 4.00358 13.7452 7.71539 13.7452 11.4979C13.7452 13.9281 12.8047 16.3249 11.4815 17.8521Z" fill="white"/>
</svg>
